<?xml version="1.0" encoding="iso-8859-1"?>
<!-- Generator: Adobe Illustrator 19.0.0, SVG Export Plug-In . SVG Version: 6.00 Build 0)  -->
<svg version="1.1" id="Capa_1" xmlns="http://www.w3.org/2000/svg" xmlns:xlink="http://www.w3.org/1999/xlink" x="0px" y="0px"
	 viewBox="0 0 511.999 511.999" style="enable-background:new 0 0 511.999 511.999;" xml:space="preserve">
<g>
	<g>
		<path d="M496.963,213.044c8.283,0,14.998-6.715,14.998-14.998v-29.995c0-15.597-7.981-29.362-20.069-37.436
			c0.986-1.034,1.95-2.094,2.879-3.191c13.798-16.289,19.699-37.706,16.19-58.763c-10.323-61.94-83.444-89.734-132.454-50.528
			l-28.482,22.63c-9.973-4.916-21.185-7.69-33.035-7.69s-23.061,2.774-33.035,7.69l-28.443-22.598
			C206.486-21.057,133.35,6.879,123.02,68.861c-3.701,22.212,3.053,45.065,19.016,61.788c-12.06,8.08-20.017,21.828-20.017,37.402
			v29.995c0,8.283,6.715,14.998,14.998,14.998h14.998v178.973h-32.47L61.788,73.391c-1.293-7.135-7.506-12.323-14.757-12.323H15.036
			c-8.283,0-14.998,6.715-14.998,14.998c0,8.283,6.715,14.998,14.998,14.998h19.472l57.757,318.626
			c1.293,7.135,7.506,12.123,14.757,12.123h23.068c-5.122,8.832-8.071,19.272-8.071,30.195c0,33.079,26.912,59.991,59.991,59.991
			c33.079,0,59.991-26.912,59.991-59.991c0-10.923-2.949-21.364-8.071-30.195c6.794,0,131.141,0,136.123,0
			c-5.122,8.832-8.071,19.272-8.071,30.195c0,33.079,26.912,59.991,59.991,59.991c33.079,0,59.991-26.912,59.991-59.991
			c0-10.923-2.949-21.164-8.071-29.995h23.068c8.283,0,14.998-6.715,14.998-14.998s-6.715-14.998-14.998-14.998h-14.998V213.044
			H496.963z M397.205,41.586c31.214-24.971,77.619-7.284,84.167,32.006c4.316,25.904-15.68,49.466-41.904,49.466h-47.491v-14.998
			c0-18.379-6.657-35.225-17.672-48.281L397.205,41.586z M152.607,73.793c6.55-39.299,52.945-57.182,84.207-32.175l22.859,18.162
			c-11.015,13.056-17.672,29.901-17.672,48.281v14.998h-47.491C168.205,123.058,148.305,99.612,152.607,73.793z M182.011,482.003
			c-16.539,0-29.995-13.456-29.995-29.995s13.456-29.995,29.995-29.995c16.539,0,29.995,13.456,29.995,29.995
			S198.55,482.003,182.011,482.003z M271.997,392.017h-89.986V213.044h89.986V392.017z M271.997,183.049H152.015v-14.998
			c0-8.27,6.728-14.998,14.998-14.998c12.237,0,93.138,0,104.984,0V183.049z M271.997,108.06c0-24.809,20.184-44.993,44.993-44.993
			s44.993,20.185,44.993,44.993v14.998c-9.863,0-80.623,0-89.986,0V108.06z M331.988,392.017h-29.995V153.053
			c10.526,0,17.881,0,29.995,0V392.017z M421.974,482.003c-16.539,0-29.995-13.456-29.995-29.995s13.456-29.995,29.995-29.995
			c16.539,0,29.995,13.456,29.995,29.995S438.514,482.003,421.974,482.003z M451.97,392.017h-89.986V213.044h89.986V392.017z
			 M361.983,183.049v-29.995c10.181,0,93.525,0,104.984,0c8.27,0,14.998,6.728,14.998,14.998v14.998H361.983z"/>
	</g>
</g>
<g>
</g>
<g>
</g>
<g>
</g>
<g>
</g>
<g>
</g>
<g>
</g>
<g>
</g>
<g>
</g>
<g>
</g>
<g>
</g>
<g>
</g>
<g>
</g>
<g>
</g>
<g>
</g>
<g>
</g>
</svg>
